<svg width="227" height="50" viewBox="0 0 227 50" fill="none" xmlns="http://www.w3.org/2000/svg">
<path d="M66.8 31H64.384V26.072H59.856V31H57.44V19.576H59.856V24.056H64.384V19.576H66.8V31ZM77.4184 26.616C77.4184 28.0667 77.0344 29.1867 76.2664 29.976C75.509 30.7653 74.4744 31.16 73.1624 31.16C72.3517 31.16 71.6264 30.984 70.9864 30.632C70.357 30.28 69.861 29.768 69.4984 29.096C69.1357 28.4133 68.9544 27.5867 68.9544 26.616C68.9544 25.1653 69.333 24.0507 70.0904 23.272C70.8477 22.4933 71.8877 22.104 73.2104 22.104C74.0317 22.104 74.757 22.28 75.3864 22.632C76.0157 22.984 76.5117 23.496 76.8744 24.168C77.237 24.8293 77.4184 25.6453 77.4184 26.616ZM71.3864 26.616C71.3864 27.48 71.525 28.136 71.8024 28.584C72.0904 29.0213 72.5544 29.24 73.1944 29.24C73.8237 29.24 74.277 29.0213 74.5544 28.584C74.8424 28.136 74.9864 27.48 74.9864 26.616C74.9864 25.752 74.8424 25.1067 74.5544 24.68C74.277 24.2427 73.8184 24.024 73.1784 24.024C72.549 24.024 72.0904 24.2427 71.8024 24.68C71.525 25.1067 71.3864 25.752 71.3864 26.616ZM87.1326 24.552C87.1326 25.0213 86.9833 25.4213 86.6846 25.752C86.3966 26.0827 85.9646 26.296 85.3886 26.392V26.456C85.9966 26.5307 86.482 26.7387 86.8446 27.08C87.218 27.4213 87.4046 27.8587 87.4046 28.392C87.4046 28.8933 87.2713 29.3413 87.0046 29.736C86.7486 30.1307 86.338 30.44 85.7726 30.664C85.2073 30.888 84.466 31 83.5486 31H79.3886V22.264H83.5486C84.2313 22.264 84.8393 22.3387 85.3726 22.488C85.9166 22.6267 86.3433 22.8613 86.6526 23.192C86.9726 23.5227 87.1326 23.976 87.1326 24.552ZM84.7166 24.744C84.7166 24.2107 84.2953 23.944 83.4526 23.944H81.7726V25.672H83.1806C83.682 25.672 84.0606 25.6027 84.3166 25.464C84.5833 25.3147 84.7166 25.0747 84.7166 24.744ZM84.9406 28.264C84.9406 27.9227 84.8073 27.6773 84.5406 27.528C84.274 27.368 83.874 27.288 83.3406 27.288H81.7726V29.352H83.3886C83.8366 29.352 84.2046 29.272 84.4926 29.112C84.7913 28.9413 84.9406 28.6587 84.9406 28.264ZM93.0351 22.088C94.2085 22.088 95.1045 22.344 95.7231 22.856C96.3525 23.3573 96.6671 24.1307 96.6671 25.176V31H95.0031L94.5391 29.816H94.4751C94.1018 30.2853 93.7071 30.6267 93.2911 30.84C92.8751 31.0533 92.3045 31.16 91.5791 31.16C90.8005 31.16 90.1551 30.936 89.6431 30.488C89.1311 30.0293 88.8751 29.3307 88.8751 28.392C88.8751 27.464 89.2005 26.7813 89.8511 26.344C90.5018 25.896 91.4778 25.6507 92.7791 25.608L94.2991 25.56V25.176C94.2991 24.7173 94.1765 24.3813 93.9311 24.168C93.6965 23.9547 93.3658 23.848 92.9391 23.848C92.5125 23.848 92.0965 23.912 91.6911 24.04C91.2858 24.1573 90.8805 24.3067 90.4751 24.488L89.6911 22.872C90.1605 22.6267 90.6778 22.4347 91.2431 22.296C91.8191 22.1573 92.4165 22.088 93.0351 22.088ZM93.3711 26.984C92.6031 27.0053 92.0698 27.144 91.7711 27.4C91.4725 27.656 91.3231 27.992 91.3231 28.408C91.3231 28.7707 91.4298 29.032 91.6431 29.192C91.8565 29.3413 92.1338 29.416 92.4751 29.416C92.9871 29.416 93.4191 29.2667 93.7711 28.968C94.1231 28.6587 94.2991 28.2267 94.2991 27.672V26.952L93.3711 26.984ZM100.435 31H97.8594L100.211 27.544C99.7634 27.3627 99.3634 27.0693 99.0114 26.664C98.67 26.248 98.4994 25.6827 98.4994 24.968C98.4994 24.0933 98.83 23.4267 99.4914 22.968C100.153 22.4987 101.001 22.264 102.035 22.264H106.099V31H103.715V27.752H102.403L100.435 31ZM100.835 24.984C100.835 25.3467 100.979 25.6347 101.267 25.848C101.555 26.0507 101.929 26.152 102.387 26.152H103.715V23.944H102.083C101.657 23.944 101.342 24.0507 101.139 24.264C100.937 24.4667 100.835 24.7067 100.835 24.984Z" fill="#2B55C1" fill-opacity="0.99"/>
<path d="M119.918 22.264V31H117.534V24.056H114.366V31H111.982V22.264H119.918ZM130.356 26.616C130.356 28.0667 129.972 29.1867 129.204 29.976C128.447 30.7653 127.412 31.16 126.1 31.16C125.289 31.16 124.564 30.984 123.924 30.632C123.295 30.28 122.799 29.768 122.436 29.096C122.073 28.4133 121.892 27.5867 121.892 26.616C121.892 25.1653 122.271 24.0507 123.028 23.272C123.785 22.4933 124.825 22.104 126.148 22.104C126.969 22.104 127.695 22.28 128.324 22.632C128.953 22.984 129.449 23.496 129.812 24.168C130.175 24.8293 130.356 25.6453 130.356 26.616ZM124.324 26.616C124.324 27.48 124.463 28.136 124.74 28.584C125.028 29.0213 125.492 29.24 126.132 29.24C126.761 29.24 127.215 29.0213 127.492 28.584C127.78 28.136 127.924 27.48 127.924 26.616C127.924 25.752 127.78 25.1067 127.492 24.68C127.215 24.2427 126.756 24.024 126.116 24.024C125.487 24.024 125.028 24.2427 124.74 24.68C124.463 25.1067 124.324 25.752 124.324 26.616ZM140.15 31H137.766V24.056H135.574C135.435 25.7627 135.249 27.1387 135.014 28.184C134.79 29.2187 134.475 29.976 134.07 30.456C133.665 30.9253 133.121 31.16 132.438 31.16C131.883 31.16 131.43 31.0747 131.078 30.904V29C131.323 29.1067 131.579 29.16 131.846 29.16C132.038 29.16 132.214 29.064 132.374 28.872C132.534 28.68 132.683 28.3333 132.822 27.832C132.971 27.3307 133.105 26.632 133.222 25.736C133.339 24.8293 133.446 23.672 133.542 22.264H140.15V31ZM144.943 25.72C144.943 25.9013 144.932 26.1253 144.911 26.392C144.9 26.6587 144.884 26.9307 144.863 27.208C144.852 27.4853 144.836 27.7307 144.815 27.944C144.793 28.1573 144.777 28.3067 144.767 28.392L148.799 22.264H151.663V31H149.359V27.512C149.359 27.224 149.369 26.9093 149.391 26.568C149.412 26.216 149.433 25.8907 149.455 25.592C149.487 25.2827 149.508 25.048 149.519 24.888L145.503 31H142.639V22.264H144.943V25.72ZM159.882 22.264H162.506L159.05 26.456L162.81 31H160.106L156.538 26.568V31H154.154V22.264H156.538V26.504L159.882 22.264ZM171.885 31H169.501V24.056H167.309C167.17 25.7627 166.983 27.1387 166.749 28.184C166.525 29.2187 166.21 29.976 165.805 30.456C165.399 30.9253 164.855 31.16 164.173 31.16C163.618 31.16 163.164 31.0747 162.812 30.904V29C163.058 29.1067 163.314 29.16 163.581 29.16C163.772 29.16 163.948 29.064 164.109 28.872C164.269 28.68 164.418 28.3333 164.557 27.832C164.706 27.3307 164.839 26.632 164.957 25.736C165.074 24.8293 165.181 23.672 165.277 22.264H171.885V31ZM176.677 25.72C176.677 25.9013 176.666 26.1253 176.645 26.392C176.634 26.6587 176.618 26.9307 176.597 27.208C176.586 27.4853 176.57 27.7307 176.549 27.944C176.528 28.1573 176.512 28.3067 176.501 28.392L180.533 22.264H183.397V31H181.093V27.512C181.093 27.224 181.104 26.9093 181.125 26.568C181.146 26.216 181.168 25.8907 181.189 25.592C181.221 25.2827 181.242 25.048 181.253 24.888L177.237 31H174.373V22.264H176.677V25.72ZM188.273 22.264V25.624H191.601V22.264H193.985V31H191.601V27.4H188.273V31H185.889V22.264H188.273ZM198.786 25.72C198.786 25.9013 198.776 26.1253 198.754 26.392C198.744 26.6587 198.728 26.9307 198.706 27.208C198.696 27.4853 198.68 27.7307 198.658 27.944C198.637 28.1573 198.621 28.3067 198.61 28.392L202.642 22.264H205.506V31H203.202V27.512C203.202 27.224 203.213 26.9093 203.234 26.568C203.256 26.216 203.277 25.8907 203.298 25.592C203.33 25.2827 203.352 25.048 203.362 24.888L199.346 31H196.482V22.264H198.786V25.72ZM213.726 22.264H216.35L212.894 26.456L216.654 31H213.95L210.382 26.568V31H207.998V22.264H210.382V26.504L213.726 22.264ZM221.488 22.088C222.662 22.088 223.558 22.344 224.176 22.856C224.806 23.3573 225.12 24.1307 225.12 25.176V31H223.456L222.992 29.816H222.928C222.555 30.2853 222.16 30.6267 221.744 30.84C221.328 31.0533 220.758 31.16 220.032 31.16C219.254 31.16 218.608 30.936 218.096 30.488C217.584 30.0293 217.328 29.3307 217.328 28.392C217.328 27.464 217.654 26.7813 218.304 26.344C218.955 25.896 219.931 25.6507 221.232 25.608L222.752 25.56V25.176C222.752 24.7173 222.63 24.3813 222.384 24.168C222.15 23.9547 221.819 23.848 221.392 23.848C220.966 23.848 220.55 23.912 220.144 24.04C219.739 24.1573 219.334 24.3067 218.928 24.488L218.144 22.872C218.614 22.6267 219.131 22.4347 219.696 22.296C220.272 22.1573 220.87 22.088 221.488 22.088ZM221.824 26.984C221.056 27.0053 220.523 27.144 220.224 27.4C219.926 27.656 219.776 27.992 219.776 28.408C219.776 28.7707 219.883 29.032 220.096 29.192C220.31 29.3413 220.587 29.416 220.928 29.416C221.44 29.416 221.872 29.2667 222.224 28.968C222.576 28.6587 222.752 28.2267 222.752 27.672V26.952L221.824 26.984Z" fill="#28A9F1" fill-opacity="0.99"/>
<circle cx="25" cy="25" r="25" fill="#2294FE"/>
<g filter="url(#filter0_d_3_108)">
<rect x="12.1431" y="8.6207" width="8.0744" height="19.4235" rx="4.0372" transform="rotate(1.91429 12.1431 8.6207)" fill="url(#paint0_linear_3_108)"/>
<path fill-rule="evenodd" clip-rule="evenodd" d="M20.0782 12.9254C20.1526 10.6969 18.4065 8.83004 16.1781 8.75556V8.75556L15.5292 28.1682V28.1682C17.7577 28.2427 19.6246 26.4966 19.699 24.2681L20.0782 12.9254Z" fill="url(#paint1_linear_3_108)"/>
</g>
<g filter="url(#filter1_d_3_108)">
<rect x="35.5589" y="22.078" width="8.0744" height="19.4235" rx="4.0372" transform="rotate(45.9976 35.5589 22.078)" fill="url(#paint2_linear_3_108)"/>
<path fill-rule="evenodd" clip-rule="evenodd" d="M38.2641 30.6906C39.8679 29.1416 39.9124 26.5858 38.3635 24.982V24.982L24.3919 38.4753V38.4753C25.9409 40.0791 28.4967 40.1236 30.1005 38.5747L38.2641 30.6906Z" fill="url(#paint3_linear_3_108)"/>
</g>
<defs>
<filter id="filter0_d_3_108" x="7.62683" y="6.75327" width="20.4536" height="31.4173" filterUnits="userSpaceOnUse" color-interpolation-filters="sRGB">
<feFlood flood-opacity="0" result="BackgroundImageFix"/>
<feColorMatrix in="SourceAlpha" type="matrix" values="0 0 0 0 0 0 0 0 0 0 0 0 0 0 0 0 0 0 127 0" result="hardAlpha"/>
<feOffset dx="2" dy="4"/>
<feGaussianBlur stdDeviation="3"/>
<feComposite in2="hardAlpha" operator="out"/>
<feColorMatrix type="matrix" values="0 0 0 0 0 0 0 0 0 0 0 0 0 0 0 0 0 0 0.4 0"/>
<feBlend mode="normal" in2="BackgroundImageFix" result="effect1_dropShadow_3_108"/>
<feBlend mode="normal" in="SourceGraphic" in2="effect1_dropShadow_3_108" result="shape"/>
</filter>
<filter id="filter1_d_3_108" x="21.2587" y="23.7494" width="24.238" height="23.9585" filterUnits="userSpaceOnUse" color-interpolation-filters="sRGB">
<feFlood flood-opacity="0" result="BackgroundImageFix"/>
<feColorMatrix in="SourceAlpha" type="matrix" values="0 0 0 0 0 0 0 0 0 0 0 0 0 0 0 0 0 0 127 0" result="hardAlpha"/>
<feOffset dx="2" dy="4"/>
<feGaussianBlur stdDeviation="2"/>
<feComposite in2="hardAlpha" operator="out"/>
<feColorMatrix type="matrix" values="0 0 0 0 0 0 0 0 0 0 0 0 0 0 0 0 0 0 0.4 0"/>
<feBlend mode="normal" in2="BackgroundImageFix" result="effect1_dropShadow_3_108"/>
<feBlend mode="normal" in="SourceGraphic" in2="effect1_dropShadow_3_108" result="shape"/>
</filter>
<linearGradient id="paint0_linear_3_108" x1="16.1803" y1="8.6207" x2="16.1803" y2="28.0442" gradientUnits="userSpaceOnUse">
<stop offset="0.484375" stop-color="white"/>
<stop offset="0.484475" stop-color="#FF0505"/>
</linearGradient>
<linearGradient id="paint1_linear_3_108" x1="16.1781" y1="8.75556" x2="15.5292" y2="28.1682" gradientUnits="userSpaceOnUse">
<stop offset="0.484375" stop-color="#F0EDED"/>
<stop offset="0.484475" stop-color="#DF1212"/>
</linearGradient>
<linearGradient id="paint2_linear_3_108" x1="39.5961" y1="22.078" x2="39.5961" y2="41.5015" gradientUnits="userSpaceOnUse">
<stop offset="0.484375" stop-color="white"/>
<stop offset="0.484475" stop-color="#FF0505"/>
</linearGradient>
<linearGradient id="paint3_linear_3_108" x1="38.3635" y1="24.982" x2="24.3919" y2="38.4753" gradientUnits="userSpaceOnUse">
<stop offset="0.484375" stop-color="#F0EDED"/>
<stop offset="0.484475" stop-color="#DF1212"/>
</linearGradient>
</defs>
</svg>
