<svg width="220" height="40" viewBox="0 0 220 40" fill="none" xmlns="http://www.w3.org/2000/svg">
<path d="M59.8 26H57.384V21.072H52.856V26H50.44V14.576H52.856V19.056H57.384V14.576H59.8V26ZM70.4184 21.616C70.4184 23.0667 70.0344 24.1867 69.2664 24.976C68.509 25.7653 67.4744 26.16 66.1624 26.16C65.3517 26.16 64.6264 25.984 63.9864 25.632C63.357 25.28 62.861 24.768 62.4984 24.096C62.1357 23.4133 61.9544 22.5867 61.9544 21.616C61.9544 20.1653 62.333 19.0507 63.0904 18.272C63.8477 17.4933 64.8877 17.104 66.2104 17.104C67.0317 17.104 67.757 17.28 68.3864 17.632C69.0157 17.984 69.5117 18.496 69.8744 19.168C70.237 19.8293 70.4184 20.6453 70.4184 21.616ZM64.3864 21.616C64.3864 22.48 64.525 23.136 64.8024 23.584C65.0904 24.0213 65.5544 24.24 66.1944 24.24C66.8237 24.24 67.277 24.0213 67.5544 23.584C67.8424 23.136 67.9864 22.48 67.9864 21.616C67.9864 20.752 67.8424 20.1067 67.5544 19.68C67.277 19.2427 66.8184 19.024 66.1784 19.024C65.549 19.024 65.0904 19.2427 64.8024 19.68C64.525 20.1067 64.3864 20.752 64.3864 21.616ZM80.1326 19.552C80.1326 20.0213 79.9833 20.4213 79.6846 20.752C79.3966 21.0827 78.9646 21.296 78.3886 21.392V21.456C78.9966 21.5307 79.482 21.7387 79.8446 22.08C80.218 22.4213 80.4046 22.8587 80.4046 23.392C80.4046 23.8933 80.2713 24.3413 80.0046 24.736C79.7486 25.1307 79.338 25.44 78.7726 25.664C78.2073 25.888 77.466 26 76.5486 26H72.3886V17.264H76.5486C77.2313 17.264 77.8393 17.3387 78.3726 17.488C78.9166 17.6267 79.3433 17.8613 79.6526 18.192C79.9726 18.5227 80.1326 18.976 80.1326 19.552ZM77.7166 19.744C77.7166 19.2107 77.2953 18.944 76.4526 18.944H74.7726V20.672H76.1806C76.682 20.672 77.0606 20.6027 77.3166 20.464C77.5833 20.3147 77.7166 20.0747 77.7166 19.744ZM77.9406 23.264C77.9406 22.9227 77.8073 22.6773 77.5406 22.528C77.274 22.368 76.874 22.288 76.3406 22.288H74.7726V24.352H76.3886C76.8366 24.352 77.2046 24.272 77.4926 24.112C77.7913 23.9413 77.9406 23.6587 77.9406 23.264ZM86.0351 17.088C87.2085 17.088 88.1045 17.344 88.7231 17.856C89.3525 18.3573 89.6671 19.1307 89.6671 20.176V26H88.0031L87.5391 24.816H87.4751C87.1018 25.2853 86.7071 25.6267 86.2911 25.84C85.8751 26.0533 85.3045 26.16 84.5791 26.16C83.8005 26.16 83.1551 25.936 82.6431 25.488C82.1311 25.0293 81.8751 24.3307 81.8751 23.392C81.8751 22.464 82.2005 21.7813 82.8511 21.344C83.5018 20.896 84.4778 20.6507 85.7791 20.608L87.2991 20.56V20.176C87.2991 19.7173 87.1765 19.3813 86.9311 19.168C86.6965 18.9547 86.3658 18.848 85.9391 18.848C85.5125 18.848 85.0965 18.912 84.6911 19.04C84.2858 19.1573 83.8805 19.3067 83.4751 19.488L82.6911 17.872C83.1605 17.6267 83.6778 17.4347 84.2431 17.296C84.8191 17.1573 85.4165 17.088 86.0351 17.088ZM86.3711 21.984C85.6031 22.0053 85.0698 22.144 84.7711 22.4C84.4725 22.656 84.3231 22.992 84.3231 23.408C84.3231 23.7707 84.4298 24.032 84.6431 24.192C84.8565 24.3413 85.1338 24.416 85.4751 24.416C85.9871 24.416 86.4191 24.2667 86.7711 23.968C87.1231 23.6587 87.2991 23.2267 87.2991 22.672V21.952L86.3711 21.984ZM93.4354 26H90.8594L93.2114 22.544C92.7634 22.3627 92.3634 22.0693 92.0114 21.664C91.67 21.248 91.4994 20.6827 91.4994 19.968C91.4994 19.0933 91.83 18.4267 92.4914 17.968C93.1527 17.4987 94.0007 17.264 95.0354 17.264H99.0994V26H96.7154V22.752H95.4034L93.4354 26ZM93.8354 19.984C93.8354 20.3467 93.9794 20.6347 94.2674 20.848C94.5554 21.0507 94.9287 21.152 95.3874 21.152H96.7154V18.944H95.0834C94.6567 18.944 94.342 19.0507 94.1394 19.264C93.9367 19.4667 93.8354 19.7067 93.8354 19.984Z" fill="#2B55C1" fill-opacity="0.99"/>
<path d="M112.918 17.264V26H110.534V19.056H107.366V26H104.982V17.264H112.918ZM123.356 21.616C123.356 23.0667 122.972 24.1867 122.204 24.976C121.447 25.7653 120.412 26.16 119.1 26.16C118.289 26.16 117.564 25.984 116.924 25.632C116.295 25.28 115.799 24.768 115.436 24.096C115.073 23.4133 114.892 22.5867 114.892 21.616C114.892 20.1653 115.271 19.0507 116.028 18.272C116.785 17.4933 117.825 17.104 119.148 17.104C119.969 17.104 120.695 17.28 121.324 17.632C121.953 17.984 122.449 18.496 122.812 19.168C123.175 19.8293 123.356 20.6453 123.356 21.616ZM117.324 21.616C117.324 22.48 117.463 23.136 117.74 23.584C118.028 24.0213 118.492 24.24 119.132 24.24C119.761 24.24 120.215 24.0213 120.492 23.584C120.78 23.136 120.924 22.48 120.924 21.616C120.924 20.752 120.78 20.1067 120.492 19.68C120.215 19.2427 119.756 19.024 119.116 19.024C118.487 19.024 118.028 19.2427 117.74 19.68C117.463 20.1067 117.324 20.752 117.324 21.616ZM133.15 26H130.766V19.056H128.574C128.435 20.7627 128.249 22.1387 128.014 23.184C127.79 24.2187 127.475 24.976 127.07 25.456C126.665 25.9253 126.121 26.16 125.438 26.16C124.883 26.16 124.43 26.0747 124.078 25.904V24C124.323 24.1067 124.579 24.16 124.846 24.16C125.038 24.16 125.214 24.064 125.374 23.872C125.534 23.68 125.683 23.3333 125.822 22.832C125.971 22.3307 126.105 21.632 126.222 20.736C126.339 19.8293 126.446 18.672 126.542 17.264H133.15V26ZM137.943 20.72C137.943 20.9013 137.932 21.1253 137.911 21.392C137.9 21.6587 137.884 21.9307 137.863 22.208C137.852 22.4853 137.836 22.7307 137.815 22.944C137.793 23.1573 137.777 23.3067 137.767 23.392L141.799 17.264H144.663V26H142.359V22.512C142.359 22.224 142.369 21.9093 142.391 21.568C142.412 21.216 142.433 20.8907 142.455 20.592C142.487 20.2827 142.508 20.048 142.519 19.888L138.503 26H135.639V17.264H137.943V20.72ZM152.882 17.264H155.506L152.05 21.456L155.81 26H153.106L149.538 21.568V26H147.154V17.264H149.538V21.504L152.882 17.264ZM164.885 26H162.501V19.056H160.309C160.17 20.7627 159.983 22.1387 159.749 23.184C159.525 24.2187 159.21 24.976 158.805 25.456C158.399 25.9253 157.855 26.16 157.173 26.16C156.618 26.16 156.164 26.0747 155.812 25.904V24C156.058 24.1067 156.314 24.16 156.581 24.16C156.772 24.16 156.948 24.064 157.109 23.872C157.269 23.68 157.418 23.3333 157.557 22.832C157.706 22.3307 157.839 21.632 157.957 20.736C158.074 19.8293 158.181 18.672 158.277 17.264H164.885V26ZM169.677 20.72C169.677 20.9013 169.666 21.1253 169.645 21.392C169.634 21.6587 169.618 21.9307 169.597 22.208C169.586 22.4853 169.57 22.7307 169.549 22.944C169.528 23.1573 169.512 23.3067 169.501 23.392L173.533 17.264H176.397V26H174.093V22.512C174.093 22.224 174.104 21.9093 174.125 21.568C174.146 21.216 174.168 20.8907 174.189 20.592C174.221 20.2827 174.242 20.048 174.253 19.888L170.237 26H167.373V17.264H169.677V20.72ZM181.273 17.264V20.624H184.601V17.264H186.985V26H184.601V22.4H181.273V26H178.889V17.264H181.273ZM191.786 20.72C191.786 20.9013 191.776 21.1253 191.754 21.392C191.744 21.6587 191.728 21.9307 191.706 22.208C191.696 22.4853 191.68 22.7307 191.658 22.944C191.637 23.1573 191.621 23.3067 191.61 23.392L195.642 17.264H198.506V26H196.202V22.512C196.202 22.224 196.213 21.9093 196.234 21.568C196.256 21.216 196.277 20.8907 196.298 20.592C196.33 20.2827 196.352 20.048 196.362 19.888L192.346 26H189.482V17.264H191.786V20.72ZM206.726 17.264H209.35L205.894 21.456L209.654 26H206.95L203.382 21.568V26H200.998V17.264H203.382V21.504L206.726 17.264ZM214.488 17.088C215.662 17.088 216.558 17.344 217.176 17.856C217.806 18.3573 218.12 19.1307 218.12 20.176V26H216.456L215.992 24.816H215.928C215.555 25.2853 215.16 25.6267 214.744 25.84C214.328 26.0533 213.758 26.16 213.032 26.16C212.254 26.16 211.608 25.936 211.096 25.488C210.584 25.0293 210.328 24.3307 210.328 23.392C210.328 22.464 210.654 21.7813 211.304 21.344C211.955 20.896 212.931 20.6507 214.232 20.608L215.752 20.56V20.176C215.752 19.7173 215.63 19.3813 215.384 19.168C215.15 18.9547 214.819 18.848 214.392 18.848C213.966 18.848 213.55 18.912 213.144 19.04C212.739 19.1573 212.334 19.3067 211.928 19.488L211.144 17.872C211.614 17.6267 212.131 17.4347 212.696 17.296C213.272 17.1573 213.87 17.088 214.488 17.088ZM214.824 21.984C214.056 22.0053 213.523 22.144 213.224 22.4C212.926 22.656 212.776 22.992 212.776 23.408C212.776 23.7707 212.883 24.032 213.096 24.192C213.31 24.3413 213.587 24.416 213.928 24.416C214.44 24.416 214.872 24.2667 215.224 23.968C215.576 23.6587 215.752 23.2267 215.752 22.672V21.952L214.824 21.984Z" fill="#28A9F1" fill-opacity="0.99"/>
<circle cx="20" cy="20" r="20" fill="#2294FE"/>
<g filter="url(#filter0_d_3_108)">
<rect x="9.71448" y="6.89661" width="6.45952" height="15.5388" rx="3.22976" transform="rotate(1.91429 9.71448 6.89661)" fill="url(#paint0_linear_3_108)"/>
<path fill-rule="evenodd" clip-rule="evenodd" d="M16.0625 10.3403C16.1221 8.55759 14.7252 7.06408 12.9424 7.00449V7.00449L12.4234 22.5346V22.5346C14.2061 22.5942 15.6996 21.1973 15.7592 19.4146L16.0625 10.3403Z" fill="url(#paint1_linear_3_108)"/>
</g>
<g filter="url(#filter1_d_3_108)">
<rect x="28.4471" y="17.6624" width="6.45952" height="15.5388" rx="3.22976" transform="rotate(45.9976 28.4471 17.6624)" fill="url(#paint2_linear_3_108)"/>
<path fill-rule="evenodd" clip-rule="evenodd" d="M30.6113 24.5524C31.8944 23.3133 31.93 21.2686 30.6908 19.9856V19.9856L19.5136 30.7802V30.7802C20.7527 32.0633 22.7974 32.0989 24.0805 30.8597L30.6113 24.5524Z" fill="url(#paint3_linear_3_108)"/>
</g>
<defs>
<filter id="filter0_d_3_108" x="5.30145" y="5.00266" width="18.7629" height="27.5338" filterUnits="userSpaceOnUse" color-interpolation-filters="sRGB">
<feFlood flood-opacity="0" result="BackgroundImageFix"/>
<feColorMatrix in="SourceAlpha" type="matrix" values="0 0 0 0 0 0 0 0 0 0 0 0 0 0 0 0 0 0 127 0" result="hardAlpha"/>
<feOffset dx="2" dy="4"/>
<feGaussianBlur stdDeviation="3"/>
<feComposite in2="hardAlpha" operator="out"/>
<feColorMatrix type="matrix" values="0 0 0 0 0 0 0 0 0 0 0 0 0 0 0 0 0 0 0.4 0"/>
<feBlend mode="normal" in2="BackgroundImageFix" result="effect1_dropShadow_3_108"/>
<feBlend mode="normal" in="SourceGraphic" in2="effect1_dropShadow_3_108" result="shape"/>
</filter>
<filter id="filter1_d_3_108" x="16.607" y="18.9995" width="20.9904" height="20.7668" filterUnits="userSpaceOnUse" color-interpolation-filters="sRGB">
<feFlood flood-opacity="0" result="BackgroundImageFix"/>
<feColorMatrix in="SourceAlpha" type="matrix" values="0 0 0 0 0 0 0 0 0 0 0 0 0 0 0 0 0 0 127 0" result="hardAlpha"/>
<feOffset dx="2" dy="4"/>
<feGaussianBlur stdDeviation="2"/>
<feComposite in2="hardAlpha" operator="out"/>
<feColorMatrix type="matrix" values="0 0 0 0 0 0 0 0 0 0 0 0 0 0 0 0 0 0 0.4 0"/>
<feBlend mode="normal" in2="BackgroundImageFix" result="effect1_dropShadow_3_108"/>
<feBlend mode="normal" in="SourceGraphic" in2="effect1_dropShadow_3_108" result="shape"/>
</filter>
<linearGradient id="paint0_linear_3_108" x1="12.9442" y1="6.89661" x2="12.9442" y2="22.4354" gradientUnits="userSpaceOnUse">
<stop offset="0.484375" stop-color="white"/>
<stop offset="0.484475" stop-color="#FF0505"/>
</linearGradient>
<linearGradient id="paint1_linear_3_108" x1="12.9424" y1="7.00449" x2="12.4234" y2="22.5346" gradientUnits="userSpaceOnUse">
<stop offset="0.484375" stop-color="#F0EDED"/>
<stop offset="0.484475" stop-color="#DF1212"/>
</linearGradient>
<linearGradient id="paint2_linear_3_108" x1="31.6769" y1="17.6624" x2="31.6769" y2="33.2012" gradientUnits="userSpaceOnUse">
<stop offset="0.484375" stop-color="white"/>
<stop offset="0.484475" stop-color="#FF0505"/>
</linearGradient>
<linearGradient id="paint3_linear_3_108" x1="30.6908" y1="19.9856" x2="19.5136" y2="30.7802" gradientUnits="userSpaceOnUse">
<stop offset="0.484375" stop-color="#F0EDED"/>
<stop offset="0.484475" stop-color="#DF1212"/>
</linearGradient>
</defs>
</svg>
